<?xml version="1.0" encoding="UTF-8" standalone="no"?>
<!-- Created with Inkscape (http://www.inkscape.org/) -->

<svg
   xmlns:dc="http://purl.org/dc/elements/1.1/"
   xmlns:cc="http://creativecommons.org/ns#"
   xmlns:rdf="http://www.w3.org/1999/02/22-rdf-syntax-ns#"
   xmlns:svg="http://www.w3.org/2000/svg"
   xmlns="http://www.w3.org/2000/svg"
   xmlns:sodipodi="http://sodipodi.sourceforge.net/DTD/sodipodi-0.dtd"
   xmlns:inkscape="http://www.inkscape.org/namespaces/inkscape"
   width="900mm"
   height="600mm"
   viewBox="0 0 3188.9764 2125.9842"
   id="svg2"
   version="1.1"
   inkscape:version="0.91 r13725"
   sodipodi:docname="vensterbank_led-mount.svg">
  <defs
     id="defs4" />
  <sodipodi:namedview
     id="base"
     pagecolor="#ffffff"
     bordercolor="#666666"
     borderopacity="1.0"
     inkscape:pageopacity="0.0"
     inkscape:pageshadow="2"
     inkscape:zoom="0.89201549"
     inkscape:cx="2275.1432"
     inkscape:cy="1905.6148"
     inkscape:document-units="mm"
     inkscape:current-layer="layer1"
     showgrid="true"
     inkscape:window-width="1280"
     inkscape:window-height="962"
     inkscape:window-x="-8"
     inkscape:window-y="-8"
     inkscape:window-maximized="1"
     inkscape:snap-bbox="false"
     inkscape:bbox-nodes="false"
     inkscape:snap-intersection-paths="true"
     inkscape:object-nodes="true"
     inkscape:snap-grids="true"
     inkscape:snap-to-guides="true"
     inkscape:snap-nodes="true"
     inkscape:bbox-paths="false"
     inkscape:snap-bbox-edge-midpoints="true"
     inkscape:snap-midpoints="true">
    <inkscape:grid
       type="xygrid"
       id="grid3355" />
  </sodipodi:namedview>
  <metadata
     id="metadata7">
    <rdf:RDF>
      <cc:Work
         rdf:about="">
        <dc:format>image/svg+xml</dc:format>
        <dc:type
           rdf:resource="http://purl.org/dc/dcmitype/StillImage" />
        <dc:title></dc:title>
        <cc:license
           rdf:resource="" />
      </cc:Work>
    </rdf:RDF>
  </metadata>
  <g
     inkscape:label="Layer 1"
     inkscape:groupmode="layer"
     id="layer1"
     transform="translate(0,1073.622)">
    <path
       style="fill:none;fill-opacity:1;stroke:#0000ff;stroke-width:1.06299996;stroke-miterlimit:4;stroke-dasharray:none;stroke-opacity:1"
       d="m 2062.2047,-899.99995 0,-10.62992 3.5433,0 0,10.62992 14.1733,0 0,148.81889 -14.1733,0 0,10.6298 -3.5433,1.3e-4 0,-10.62993 -14.1732,3.54319 0,14.17322 17.7165,14.17323 31.8898,0 0,-124.01574 14.1732,0 0,31.88976 7.0867,0 7.0866,-31.88976 0,-38.97638 -28.3465,0 0,-53.14963 -35.4331,0 -17.7165,10.62994 0,17.71654 17.7165,7.08674"
       id="path3361"
       inkscape:connector-curvature="0"
       sodipodi:nodetypes="cccccccccccccccccccccccccc" />
    <path
       style="fill:none;fill-opacity:1;stroke:#ff0000;stroke-width:1.34460032;stroke-miterlimit:4;stroke-dasharray:none;stroke-opacity:1"
       d="m 2179.1339,-829.1339 14.1732,0 0,28.34645 290.5512,0 0,-28.34645 14.1732,0 0,-85.0394 -318.8976,0 z"
       id="path3384-6"
       inkscape:connector-curvature="0" />
    <path
       style="color:#000000;clip-rule:nonzero;display:inline;overflow:visible;visibility:visible;opacity:1;isolation:auto;mix-blend-mode:normal;color-interpolation:sRGB;color-interpolation-filters:linearRGB;solid-color:#000000;solid-opacity:1;fill:#000000;fill-opacity:0;fill-rule:nonzero;stroke:#000000;stroke-width:2.90425277;stroke-linecap:butt;stroke-linejoin:miter;stroke-miterlimit:4;stroke-dasharray:none;stroke-dashoffset:0;stroke-opacity:1;color-rendering:auto;image-rendering:auto;shape-rendering:auto;text-rendering:auto;enable-background:accumulate"
       d="m 2237.6029,-900.8075 a 4.4420094,4.4420643 0 0 1 -4.442,4.44207 4.4420094,4.4420643 0 0 1 -4.442,-4.44207 4.4420094,4.4420643 0 0 1 4.442,-4.44206 4.4420094,4.4420643 0 0 1 4.442,4.44206 z"
       id="path3386-0" />
    <path
       style="color:#000000;clip-rule:nonzero;display:inline;overflow:visible;visibility:visible;opacity:1;isolation:auto;mix-blend-mode:normal;color-interpolation:sRGB;color-interpolation-filters:linearRGB;solid-color:#000000;solid-opacity:1;fill:#000000;fill-opacity:0;fill-rule:nonzero;stroke:#000000;stroke-width:2.90425277;stroke-linecap:butt;stroke-linejoin:miter;stroke-miterlimit:4;stroke-dasharray:none;stroke-dashoffset:0;stroke-opacity:1;color-rendering:auto;image-rendering:auto;shape-rendering:auto;text-rendering:auto;enable-background:accumulate"
       d="m 2448.4469,-900.8075 a 4.4420094,4.4420643 0 0 1 -4.442,4.44207 4.4420094,4.4420643 0 0 1 -4.442,-4.44207 4.4420094,4.4420643 0 0 1 4.442,-4.44206 4.4420094,4.4420643 0 0 1 4.442,4.44206 z"
       id="path3386-6-6" />
    <path
       style="fill:none;fill-opacity:1;stroke:#0000ff;stroke-width:1.08586252;stroke-miterlimit:4;stroke-dasharray:none;stroke-opacity:1"
       d="m 2551.1811,-772.44102 -425.1968,0 0,212.59848 425.1968,0 z"
       id="path3365-7"
       inkscape:connector-curvature="0" />
    <path
       style="fill:none;fill-opacity:1;stroke:#00ff00;stroke-width:0.85040075;stroke-miterlimit:4;stroke-dasharray:none;stroke-opacity:1"
       d="m 2483.8583,-648.42522 0,-70.8661 14.1732,0 0,70.8661 z"
       id="path3367-92"
       inkscape:connector-curvature="0" />
    <path
       style="fill:none;fill-opacity:1;stroke:#00ff00;stroke-width:0.85040003;stroke-miterlimit:4;stroke-dasharray:none;stroke-opacity:1"
       d="m 2179.1339,-648.42522 0,-70.8661 14.1732,0 0,70.8661 z"
       id="path3367-3-0"
       inkscape:connector-curvature="0" />
    <path
       style="color:#000000;clip-rule:nonzero;display:inline;overflow:visible;visibility:visible;opacity:1;isolation:auto;mix-blend-mode:normal;color-interpolation:sRGB;color-interpolation-filters:linearRGB;solid-color:#000000;solid-opacity:1;fill:#000000;fill-opacity:0;fill-rule:nonzero;stroke:#000000;stroke-width:2.90425277;stroke-linecap:butt;stroke-linejoin:miter;stroke-miterlimit:4;stroke-dasharray:none;stroke-dashoffset:0;stroke-opacity:1;color-rendering:auto;image-rendering:auto;shape-rendering:auto;text-rendering:auto;enable-background:accumulate"
       d="m 2237.6029,-759.0752 a 4.4420094,4.4420643 0 0 1 -4.442,4.44207 4.4420094,4.4420643 0 0 1 -4.442,-4.44207 4.4420094,4.4420643 0 0 1 4.442,-4.44206 4.4420094,4.4420643 0 0 1 4.442,4.44206 z"
       id="path3386-2" />
    <path
       style="color:#000000;clip-rule:nonzero;display:inline;overflow:visible;visibility:visible;opacity:1;isolation:auto;mix-blend-mode:normal;color-interpolation:sRGB;color-interpolation-filters:linearRGB;solid-color:#000000;solid-opacity:1;fill:#000000;fill-opacity:0;fill-rule:nonzero;stroke:#000000;stroke-width:2.90425277;stroke-linecap:butt;stroke-linejoin:miter;stroke-miterlimit:4;stroke-dasharray:none;stroke-dashoffset:0;stroke-opacity:1;color-rendering:auto;image-rendering:auto;shape-rendering:auto;text-rendering:auto;enable-background:accumulate"
       d="m 2448.4466,-759.0752 a 4.4420094,4.4420643 0 0 1 -4.442,4.44207 4.4420094,4.4420643 0 0 1 -4.442,-4.44207 4.4420094,4.4420643 0 0 1 4.442,-4.44206 4.4420094,4.4420643 0 0 1 4.442,4.44206 z"
       id="path3386-6-3" />
  </g>
</svg>
